<svg xmlns="http://www.w3.org/2000/svg" width="24" height="24" fill="none" viewBox="0 0 24 24">
    <path fill="#1D2A64" fill-rule="evenodd" d="M16.455 7.455c.21-.208.493-.325.789-.326.296 0 .58.115.79.322.212.207.333.488.338.784.005.295-.107.58-.31.795l-5.989 7.485c-.102.11-.227.2-.365.261-.138.062-.287.096-.438.098-.151.003-.302-.025-.442-.081-.14-.057-.268-.141-.374-.248l-3.968-3.97c-.11-.102-.2-.226-.26-.364-.062-.138-.095-.287-.098-.438-.003-.151.025-.301.082-.441.056-.14.14-.268.247-.375.107-.107.235-.19.375-.247.14-.057.29-.085.44-.082.152.003.3.036.439.097.138.062.262.15.365.26l3.141 3.14 5.21-6.637c.009-.012.019-.023.03-.033h-.002z" clip-rule="evenodd"/>
</svg>
