<svg xmlns="http://www.w3.org/2000/svg" width="24" height="24" fill="none" viewBox="0 0 24 24">
    <path fill="currentColor" stroke="currentColor" stroke-width=".6" d="M21 13.5h-4.5c-.398 0-.779.159-1.06.44S15 14.602 15 15v1.5h-4.19L7.5 13.19V9H9c.398 0 .78-.159 1.06-.44.281-.281.44-.662.44-1.06V3c0-.398-.159-.779-.44-1.06-.28-.281-.662-.44-1.06-.44H4.5c-.398 0-.779.159-1.06.44S3 2.602 3 3v4.5c0 .398.159.779.44 1.06S4.102 9 4.5 9H6v4.19l-3.53 3.53c-.14.14-.22.331-.22.53s.08.39.22.53l3.75 3.75c.14.14.331.22.53.22s.39-.08.53-.22L10.81 18H15v1.5c0 .398.159.779.44 1.06s.662.44 1.06.44H21c.398 0 .78-.159 1.06-.44.282-.281.44-.662.44-1.06V15c0-.398-.159-.779-.44-1.06-.28-.281-.662-.44-1.06-.44zM4.5 3H9v4.5H4.5V3zm2.25 16.94l-2.69-2.69 2.69-2.69 2.69 2.69-2.69 2.69zm9.75-.44V15H21v4.5h-4.5z"/>
</svg>
