<svg xmlns="http://www.w3.org/2000/svg" width="24" height="24" fill="none" viewBox="0 0 24 24">
    <path fill="#1D2A64" d="M19.4 7.34L16.66 4.6c-.358-.336-.826-.529-1.317-.542-.49-.013-.968.155-1.343.472l-9 9c-.323.326-.525.753-.57 1.21L4 18.91c-.014.146.005.294.055.432.05.139.13.264.235.368.093.092.204.166.326.216.122.05.252.075.384.074h.09l4.17-.38c.457-.046.884-.247 1.21-.57l9-9c.35-.37.538-.862.525-1.37-.013-.508-.227-.99-.595-1.34zM9.08 17.62l-3 .28.27-3L12 9.32l2.7 2.7-5.62 5.6zM16 10.68L13.32 8l1.95-2L18 8.73l-2 1.95z"/>
</svg>
