<svg xmlns="http://www.w3.org/2000/svg" width="24" height="24" fill="none" viewBox="0 0 24 24">
    <path fill="currentColor" fill-rule="evenodd" d="M3 1c.265 0 .52.072.707.201.188.13.293.304.293.486v20.625c0 .183-.105.358-.293.487C3.52 22.928 3.265 23 3 23c-.265 0-.52-.072-.707-.201-.188-.13-.293-.304-.293-.486V1.688c0-.183.105-.358.293-.487C2.48 1.072 2.735 1 3 1z" clip-rule="evenodd"/>
    <path stroke="currentColor" stroke-width="2" d="M13.3 3H7.7c-.387 0-.7.448-.7 1v2c0 .552.313 1 .7 1h5.6c.387 0 .7-.448.7-1V4c0-.552-.313-1-.7-1zM20.1 17h-7.2c-.497 0-.9.448-.9 1v2c0 .552.403 1 .9 1h7.2c.497 0 .9-.448.9-1v-2c0-.552-.403-1-.9-1zM18.375 10h-8.75C9.28 10 9 10.448 9 11v2c0 .552.28 1 .625 1h8.75c.345 0 .625-.448.625-1v-2c0-.552-.28-1-.625-1z"/>
</svg>
