<svg xmlns="http://www.w3.org/2000/svg" width="24" height="24" fill="none" viewBox="0 0 24 24">
    <path fill="currentColor" d="M10.31 8.469v-.001L5.332 2.993c-.201-.22-.481-.353-.78-.367-.297-.014-.589.09-.81.291-.22.201-.352.481-.367.78-.014.297.09.589.292.81L5.17 6.16C1.938 8.31.537 11.397.472 11.543c-.064.144-.097.3-.097.457 0 .157.033.313.097.457.034.076.856 1.899 2.67 3.713C5.566 18.593 8.63 19.874 12 19.874c1.641.009 3.268-.31 4.783-.94l1.885 2.073c.2.22.48.352.779.367.298.014.589-.091.81-.292.22-.2.353-.48.367-.779.014-.298-.09-.59-.292-.81L10.31 8.469zm-.737 2.534l3.19 3.508c-.475.145-.982.152-1.46.02-.48-.131-.912-.396-1.246-.764-.334-.367-.557-.822-.643-1.312-.085-.49-.03-.993.16-1.452zM12 17.624c-2.774 0-5.2-1.006-7.21-2.99-.791-.781-1.471-1.668-2.022-2.633.493-.873 1.761-2.803 3.939-4.151l1.272 1.399c-.62.905-.916 1.993-.84 3.087.075 1.095.518 2.132 1.256 2.943.738.812 1.728 1.351 2.81 1.53 1.083.18 2.194-.012 3.154-.542l.794.873c-1.02.325-2.083.488-3.153.484zm11.528-5.167c-.04.091-1.022 2.265-3.22 4.234-.11.1-.238.177-.378.227-.14.05-.288.071-.436.064-.149-.008-.294-.045-.428-.109s-.254-.154-.353-.264c-.099-.11-.175-.24-.224-.38-.049-.14-.07-.288-.06-.436.008-.149.046-.294.11-.427.066-.133.156-.253.268-.351.963-.87 1.783-1.888 2.426-3.015-.551-.967-1.232-1.854-2.022-2.636C17.2 7.38 14.774 6.374 12 6.374c-.588 0-1.175.047-1.755.143-.294.049-.596-.021-.838-.194-.243-.174-.407-.436-.457-.73-.049-.295.021-.597.194-.84.174-.242.436-.406.73-.456.703-.116 1.413-.174 2.125-.173 3.371 0 6.435 1.281 8.858 3.705 1.814 1.815 2.636 3.637 2.67 3.714.064.144.097.3.097.457 0 .157-.033.313-.097.457zM12.495 9.42c-.292-.057-.55-.227-.716-.473-.167-.247-.229-.549-.173-.841.055-.292.225-.55.47-.719.246-.167.548-.231.84-.177 1.036.201 1.979.732 2.688 1.512.71.78 1.148 1.77 1.25 2.82.027.297-.064.593-.254.822-.19.23-.465.374-.762.402-.035.004-.07.005-.105.005-.28 0-.55-.105-.757-.294-.207-.188-.336-.447-.362-.726-.055-.565-.291-1.097-.673-1.517-.381-.42-.889-.705-1.446-.814z"/>
</svg>
