<svg xmlns="http://www.w3.org/2000/svg" width="24" height="24" fill="none" viewBox="0 0 24 24">
    <path fill="currentColor" d="M23.528 11.543c-.034-.077-.856-1.9-2.67-3.714C18.434 5.405 15.371 4.124 12 4.124c-3.372 0-6.435 1.281-8.858 3.705C1.328 9.644.506 11.466.472 11.543c-.064.144-.097.3-.097.457 0 .157.033.313.097.457.034.077.856 1.899 2.67 3.713 2.423 2.423 5.486 3.704 8.858 3.704 3.371 0 6.434-1.28 8.858-3.704 1.814-1.814 2.636-3.636 2.67-3.713.064-.144.097-.3.097-.457 0-.157-.033-.313-.097-.457zm-4.317 3.092c-2.011 1.984-4.437 2.99-7.211 2.99s-5.2-1.006-7.21-2.99c-.791-.782-1.472-1.669-2.023-2.635.551-.966 1.231-1.853 2.022-2.636C6.8 7.38 9.226 6.374 12 6.374c2.775 0 5.2 1.006 7.211 2.99.791.783 1.472 1.67 2.023 2.636-.551.966-1.232 1.853-2.022 2.635zM12 7.125c-.964 0-1.907.286-2.708.822-.802.535-1.427 1.297-1.796 2.187-.369.891-.466 1.871-.277 2.817.188.946.652 1.814 1.334 2.496.682.682 1.55 1.146 2.496 1.334.946.189 1.926.092 2.817-.277.89-.369 1.652-.994 2.187-1.796.536-.801.822-1.744.822-2.708-.002-1.292-.516-2.532-1.43-3.445-.914-.914-2.153-1.428-3.445-1.43zm0 7.5c-.52 0-1.027-.154-1.458-.442-.432-.289-.769-.699-.967-1.178-.199-.48-.25-1.008-.15-1.517.102-.51.352-.977.719-1.344.367-.367.835-.617 1.344-.718.509-.102 1.037-.05 1.517.149s.89.535 1.177.967c.289.431.443.939.443 1.458 0 .696-.278 1.363-.77 1.855s-1.16.77-1.855.77z"/>
</svg>
