<svg xmlns="http://www.w3.org/2000/svg" width="24" height="24" fill="none" viewBox="0 0 24 24">
    <path stroke="currentColor" stroke-linecap="round" stroke-linejoin="round" stroke-width="2" d="M12 8v4l2 2"/>
    <path stroke="currentColor" stroke-linecap="round" stroke-linejoin="round" stroke-width="2" d="M3.05 20v-5h5m-5-4c.224-2.2 1.25-4.24 2.883-5.732C7.565 3.776 9.69 2.938 11.9 2.913c2.211-.026 4.354.764 6.02 2.218 1.666 1.454 2.739 3.47 3.013 5.665.274 2.194-.269 4.412-1.526 6.232-1.257 1.82-3.14 3.112-5.289 3.632-2.149.52-4.415.23-6.364-.814C5.805 18.802 4.309 17.077 3.55 15l-.5-4z"/>
</svg>
