<svg xmlns="http://www.w3.org/2000/svg" width="16" height="16" fill="none" viewBox="0 0 16 16">
    <path fill="#1D2A64" d="M8 14.667c-3.682 0-6.667-2.985-6.667-6.667S4.319 1.333 8 1.333 14.667 4.318 14.667 8 11.682 14.667 8 14.667zm0-1.334c1.415 0 2.771-.562 3.771-1.562S13.334 9.414 13.334 8c0-1.415-.562-2.771-1.563-3.771-1-1-2.356-1.562-3.77-1.562-1.415 0-2.772.561-3.772 1.562-1 1-1.562 2.356-1.562 3.77 0 1.415.562 2.772 1.562 3.772S6.586 13.333 8 13.333zm0-6.666c.177 0 .347.07.472.195s.195.294.195.471v3.334c0 .176-.07.346-.195.471s-.295.195-.472.195-.346-.07-.471-.195-.196-.295-.196-.471V7.333c0-.177.07-.346.196-.471.125-.125.294-.195.471-.195zM8 6c-.177 0-.346-.07-.471-.195s-.196-.295-.196-.472.07-.346.196-.471c.125-.125.294-.195.471-.195s.347.07.472.195.195.294.195.471-.07.347-.195.472S8.177 6 8 6z"/>
</svg>
