<svg xmlns="http://www.w3.org/2000/svg" width="24" height="24" fill="none" viewBox="0 0 24 24">
    <path stroke="currentColor" stroke-linecap="round" stroke-linejoin="round" stroke-width="2" d="M10.325 4.317c.426-1.756 2.924-1.756 3.35 0 .064.264.19.509.366.715.176.206.399.368.65.472.25.104.522.147.793.126.27-.021.532-.106.764-.247 1.543-.94 3.31.826 2.37 2.37-.141.232-.226.493-.246.764-.021.27.022.542.125.792.104.251.266.474.472.65.206.177.45.302.714.366 1.756.426 1.756 2.924 0 3.35-.264.064-.509.19-.715.366-.206.176-.368.399-.472.65-.104.25-.147.522-.126.793.021.27.106.532.247.764.94 1.543-.826 3.31-2.37 2.37-.232-.141-.493-.226-.764-.246-.27-.021-.542.022-.792.125-.251.104-.474.266-.65.472-.177.206-.302.45-.366.714-.426 1.756-2.924 1.756-3.35 0-.064-.264-.19-.509-.366-.715-.176-.206-.399-.368-.65-.472-.25-.104-.522-.147-.793-.126-.27.021-.532.106-.764.247-1.543.94-3.31-.826-2.37-2.37.141-.232.226-.493.246-.764.021-.27-.022-.542-.126-.792-.103-.251-.265-.474-.47-.65-.207-.177-.451-.302-.715-.366-1.756-.426-1.756-2.924 0-3.35.264-.064.509-.19.715-.366.206-.176.368-.399.472-.65.104-.25.147-.522.126-.793-.021-.27-.106-.532-.247-.764-.94-1.543.826-3.31 2.37-2.37 1 .608 2.296.07 2.572-1.065z"/>
    <path stroke="currentColor" stroke-linecap="round" stroke-linejoin="round" stroke-width="2" d="M12 15c1.657 0 3-1.343 3-3s-1.343-3-3-3-3 1.343-3 3 1.343 3 3 3z"/>
</svg>
