<svg xmlns="http://www.w3.org/2000/svg" width="24" height="24" fill="none" viewBox="0 0 24 24">
    <path stroke="#1D2A64" stroke-linecap="round" stroke-linejoin="round" stroke-width="2" d="M10 5c0-.53.21-1.04.586-1.414C10.96 3.21 11.47 3 12 3c.53 0 1.04.21 1.414.586C13.79 3.96 14 4.47 14 5c1.148.543 2.127 1.388 2.832 2.445C17.537 8.502 17.94 9.731 18 11v3c.075.622.295 1.217.643 1.738.347.521.812.953 1.357 1.262H4c.545-.309 1.01-.74 1.357-1.262.348-.52.568-1.116.643-1.738v-3c.06-1.269.463-2.498 1.168-3.555C7.873 6.388 8.852 5.543 10 5M9 17v1c0 .796.316 1.559.879 2.121.562.563 1.325.879 2.121.879s1.559-.316 2.121-.879C14.684 19.56 15 18.796 15 18v-1"/>
</svg>
